<?xml version="1.0" encoding="iso-8859-1"?>
<!-- Generator: Adobe Illustrator 19.0.0, SVG Export Plug-In . SVG Version: 6.00 Build 0)  -->
<svg version="1.1" id="Layer_1" xmlns="http://www.w3.org/2000/svg" xmlns:xlink="http://www.w3.org/1999/xlink" x="0px" y="0px"
	 viewBox="0 0 512 512" style="enable-background:new 0 0 512 512;" xml:space="preserve">
<g>
	<g>
		<rect x="232.727" y="294.788" width="46.545" height="46.545"/>
	</g>
</g>
<g>
	<g>
		<path d="M488.727,93.091H356.849V23.273C356.849,10.42,346.429,0,333.576,0H178.424c-12.853,0-23.273,10.42-23.273,23.273v69.818
			H23.273C10.42,93.091,0,103.509,0,116.364v78.798l23.273,5.818l23.273,5.818l165.775,41.444h87.361l165.773-41.446l23.273-5.818
			L512,195.16v-78.797C512,103.509,501.58,93.091,488.727,93.091z M310.303,93.091H201.697V46.545h108.606V93.091z"/>
	</g>
</g>
<g>
	<g>
		<path d="M488.727,248.958l-23.273,5.818l-139.636,34.909v74.921c0,12.851-10.42,23.273-23.273,23.273h-93.091
			c-12.853,0-23.273-10.422-23.273-23.273v-74.921L46.545,254.776l-23.273-5.818L0,243.14v245.588C0,501.58,10.42,512,23.273,512
			h465.455C501.58,512,512,501.58,512,488.727V243.14L488.727,248.958z"/>
	</g>
</g>
<g>
</g>
<g>
</g>
<g>
</g>
<g>
</g>
<g>
</g>
<g>
</g>
<g>
</g>
<g>
</g>
<g>
</g>
<g>
</g>
<g>
</g>
<g>
</g>
<g>
</g>
<g>
</g>
<g>
</g>
</svg>
